#!OML:ASF F:\VICON\USERDATA\INSTALL\rory3\rory3.ASF
:FULLY-SPECIFIED
:DEGREES
444
root 2.84643 16.7523 -0.168314 15.3788 5.17984 11.1089
lowerback -6.94061 1.55419 -0.0106884
upperback -2.09091 2.26159 -7.09507
thorax 2.01769 1.14814 -7.22295
lowerneck -2.51792 14.5026 5.28947
upperneck 47.1977 24.2213 -2.0628
head 19.9508 10.5766 2.1788
rclavicle -9.49197e-015 1.59028e-015
rhumerus -36.2943 3.5844 -92.877
rradius 42.2395
rwrist -38.5636
rhand -8.34565 -48.2411
rfingers 7.12502
rthumb 17.5762 -77.4667
lclavicle -9.49197e-015 1.59028e-015
lhumerus -27.6783 -19.2815 82.0283
lradius 41.1899
lwrist 73.8033
lhand -39.1329 -13.6262
lfingers 7.12502
lthumb -12.1318 16.002
rfemur -51.4818 23.9494 -6.51634
rtibia 73.9702
rfoot 3.95842 10.0045
rtoes -41.3209
lfemur -32.7918 -7.03093 -35.8793
ltibia 38.3067
lfoot -16.4902 10.3945
ltoes 6.26981
445
root 2.8468 16.7575 -0.165139 15.3601 5.18961 11.1935
lowerback -6.95283 1.53353 -0.0774781
upperback -2.04667 2.24199 -7.10661
thorax 2.06603 1.13956 -7.19793
lowerneck -2.70977 14.5405 5.1432
upperneck 47.2403 24.2617 -1.94606
head 19.9727 10.5701 2.27887
rclavicle 1.93815e-014 -1.66979e-014
rhumerus -36.2269 3.69635 -92.9002
rradius 42.186
rwrist -38.6438
rhand -8.36561 -48.2071
rfingers 7.12502
rthumb 17.557 -77.4343
lclavicle 1.93815e-014 -1.66979e-014
lhumerus -27.6482 -19.3285 82.0224
lradius 41.1703
lwrist 73.7431
lhand -39.1495 -13.4009
lfingers 7.12502
lthumb -12.1478 16.2264
rfemur -51.3711 23.938 -6.57344
rtibia 73.9293
rfoot 4.33797 9.6365
rtoes -40.062
lfemur -32.7196 -7.07239 -35.9451
ltibia 38.1935
lfoot -16.4394 10.272
ltoes 7.38158
446
root 2.84537 16.7554 -0.1628 15.3398 5.22334 11.2689
lowerback -6.95824 1.53315 -0.109444
upperback -2.00844 2.24762 -7.14621
thorax 2.10995 1.14386 -7.22133
lowerneck -2.88189 14.5436 5.05477
upperneck 47.2835 24.2456 -1.844
head 20.0012 10.5497 2.35348
rclavicle 4.37326e-014 3.45885e-014
rhumerus -36.2492 3.6463 -92.9345
rradius 42.2058
rwrist -38.6505
rhand -8.37957 -47.9741
rfingers 7.12502
rthumb 17.5436 -77.2025
lclavicle 4.37326e-014 3.45885e-014
lhumerus -27.6472 -19.3761 81.9915
lradius 41.2041
lwrist 73.6969
lhand -38.6124 -13.965
lfingers 7.12502
lthumb -11.6299 15.6922
rfemur -51.3368 23.907 -6.63033
rtibia 73.8944
rfoot 4.10041 9.91863
rtoes -40.9836
lfemur -32.4894 -7.07051 -36.0349
ltibia 37.8942
lfoot -16.2433 10.3195
ltoes 6.53785
447
root 2.84397 16.752 -0.158987 15.3495 5.12264 11.397
lowerback -7.03662 1.5708 -0.252824
upperback -1.98031 2.31496 -7.2
thorax 2.18818 1.17911 -7.18821
lowerneck -2.9533 14.5325 5.09041
upperneck 47.3301 24.2361 -1.8413
head 20.0595 10.5438 2.3621
rclavicle 2.94698e-014 -5.725e-014
rhumerus -36.2675 3.56367 -92.9452
rradius 42.2071
rwrist -38.6559
rhand -8.52718 -47.5431
rfingers 7.12502
rthumb 17.4015 -76.7842
lclavicle 2.94698e-014 -5.725e-014
lhumerus -27.6399 -19.4064 81.9783
lradius 41.2654
lwrist 73.6726
lhand -38.4348 -14.4657
lfingers 7.12502
lthumb -11.4586 15.2011
rfemur -51.3947 23.9307 -6.81863
rtibia 73.8919
rfoot 3.81667 10.2376
rtoes -41.7997
lfemur -32.4238 -6.99829 -36.2146
ltibia 37.8027
lfoot -16.1697 10.4867
ltoes 5.14523
448
root 2.84144 16.7886 -0.125858 14.4414 6.48581 11.887
lowerback -6.48623 1.14056 -0.557166
upperback -1.52802 1.76344 -7.19649
thorax 2.27323 0.908402 -7.06522
lowerneck -2.81803 14.4937 5.09109
upperneck 47.2847 24.1896 -1.89066
head 20.0017 10.5337 2.31213
rclavicle 1.2921e-014 3.26007e-014
rhumerus -36.3043 3.51317 -92.9056
rradius 42.1739
rwrist -38.8642
rhand -8.96251 -47.1648
rfingers 7.12502
rthumb 16.9825 -76.4424
lclavicle 1.2921e-014 3.26007e-014
lhumerus -27.6132 -19.5903 82.0709
lradius 41.236
lwrist 73.7627
lhand -38.8038 -14.5225
lfingers 7.12502
lthumb -11.8145 15.1243
rfemur -49.0315 23.5394 -6.07174
rtibia 73.7094
rfoot 3.40085 9.7283
rtoes -41.9661
lfemur -30.8671 -7.82756 -36.5024
ltibia 37.6253
lfoot -16.4233 10.066
ltoes 6.01742
449
root 2.84715 16.7686 -0.155476 15.3747 5.04444 11.3589
lowerback -7.05379 1.72233 -0.147573
upperback -2.09418 2.5052 -7.20761
thorax 2.10766 1.27263 -7.23973
lowerneck -2.57882 14.443 5.07323
upperneck 47.2317 24.1051 -1.89303
head 19.8916 10.5208 2.26392
rclavicle 1.75427e-014 -2.38542e-015
rhumerus -36.5047 3.28515 -92.801
rradius 42.2316
rwrist -38.7911
rhand -8.78495 -47.3837
rfingers 7.12502
rthumb 17.1534 -76.6465
lclavicle 1.75427e-014 -2.38542e-015
lhumerus -27.6708 -19.9638 82.2176
lradius 41.1317
lwrist 73.9399
lhand -38.8678 -14.5384
lfingers 7.12502
lthumb -11.8762 15.1048
rfemur -51.3721 24.0166 -6.8371
rtibia 73.7587
rfoot 3.87382 10.3519
rtoes -42.0288
lfemur -32.4778 -7.22768 -36.0749
ltibia 37.7308
lfoot -16.3897 10.3028
ltoes 7.81679
450
root 2.84332 16.7694 -0.160152 15.3919 5.09606 11.2461
lowerback -6.87028 1.7637 -0.0215675
upperback -2.24395 2.53517 -7.19874
thorax 1.85814 1.28192 -7.30623
lowerneck -2.41757 14.4089 5.21595
upperneck 47.327 24.0707 -1.90972
head 19.9491 10.5326 2.22431
rclavicle 1.10822e-014 8.74653e-015
rhumerus -36.7639 2.93719 -92.6669
rradius 42.3064
rwrist -38.1777
rhand -8.29281 -48.3994
rfingers 7.12502
rthumb 17.6271 -77.6204
lclavicle 1.10822e-014 8.74653e-015
lhumerus -27.7924 -20.2974 82.3261
lradius 41.0256
lwrist 74.1083
lhand -38.6203 -14.6672
lfingers 7.12502
lthumb -11.6375 14.9896
rfemur -51.4412 24.0131 -6.70688
rtibia 73.7543
rfoot 3.90909 10.4047
rtoes -42.1832
lfemur -32.5439 -7.25374 -35.9176
ltibia 37.7422
lfoot -16.401 10.2504
ltoes 8.32431
451
root 2.8429 16.7685 -0.159694 15.3767 5.06294 11.3156
lowerback -6.76981 1.7989 -0.0734689
upperback -2.29657 2.57958 -7.23354
thorax 1.75244 1.30195 -7.31273
lowerneck -2.42667 14.3988 5.28977
upperneck 47.4526 24.0894 -1.91572
head 20.0609 10.5422 2.23004
rclavicle -1.92821e-014 3.4191e-014
rhumerus -36.8491 2.7455 -92.5706
rradius 42.3021
rwrist -37.8219
rhand -8.86341 -49.1304
rfingers 7.12502
rthumb 17.0779 -78.3997
lclavicle -1.92821e-014 3.4191e-014
lhumerus -27.8203 -20.4645 82.3791
lradius 40.9758
lwrist 74.2559
lhand -38.5899 -14.8602
lfingers 7.12502
lthumb -11.6082 14.7983
rfemur -51.4542 24.0116 -6.79154
rtibia 73.8135
rfoot 3.92312 10.4199
rtoes -42.0404
lfemur -32.6169 -7.25854 -36.0015
ltibia 37.9444
lfoot -16.5155 10.3567
ltoes 8.27308
452
root 2.83905 16.7596 -0.15734 15.361 4.96991 11.3332
lowerback -6.8095 1.8501 -0.0885904
upperback -2.15949 2.66055 -7.26829
thorax 1.92853 1.34799 -7.33132
lowerneck -2.86744 14.4388 5.28422
upperneck 47.521 24.1705 -1.89601
head 20.2269 10.5404 2.31479
rclavicle -1.09332e-014 6.55989e-014
rhumerus -36.5778 2.71261 -92.6078
rradius 42.2907
rwrist -38.1332
rhand -9.42483 -48.7118
rfingers 7.12502
rthumb 16.5375 -78.0271
lclavicle -1.09332e-014 6.55989e-014
lhumerus -27.4626 -20.5581 82.2681
lradius 40.9264
lwrist 74.3564
lhand -38.7401 -14.9434
lfingers 7.12502
lthumb -11.753 14.7069
rfemur -51.531 24.0788 -6.82982
rtibia 73.8937
rfoot 3.89841 10.4013
rtoes -42.0353
lfemur -32.6052 -7.13628 -36.0692
ltibia 37.965
lfoot -16.413 10.5935
ltoes 6.65528
453
root 2.8345 16.751 -0.159201 15.3966 4.93564 11.3221
lowerback -6.80409 1.87586 -0.132435
upperback -2.34886 2.6858 -7.265
thorax 1.72961 1.35442 -7.30264
lowerneck -2.15487 14.3777 5.53412
upperneck 47.368 24.0983 -2.11479
head 20.0338 10.5813 2.08041
rclavicle 3.26504e-014 -6.16232e-014
rhumerus -37.0095 2.6944 -92.6902
rradius 42.3859
rwrist -38.3952
rhand -9.27611 -48.2698
rfingers 7.12502
rthumb 16.6806 -77.573
lclavicle 3.26504e-014 -6.16232e-014
lhumerus -27.8356 -20.6431 82.3844
lradius 40.9275
lwrist 74.3451
lhand -38.797 -15.0058
lfingers 7.12502
lthumb -11.808 14.6413
rfemur -51.6563 24.0768 -6.83869
rtibia 73.9701
rfoot 3.84442 10.4583
rtoes -42.2476
lfemur -32.6535 -7.04069 -36.0836
ltibia 37.9814
lfoot -16.2376 10.7272
ltoes 5.04737
454
root 2.83343 16.7507 -0.161239 15.4287 4.96642 11.3026
lowerback -6.77571 1.87432 -0.0975703
upperback -2.45009 2.67393 -7.26116
thorax 1.60835 1.34493 -7.32202
lowerneck -1.95211 14.3495 5.56776
upperneck 47.3948 24.0538 -2.11015
head 20.0022 10.5821 2.04811
rclavicle 1.16786e-014 3.81667e-014
rhumerus -37.1662 2.46716 -92.5465
rradius 42.3871
rwrist -37.6209
rhand -7.81198 -49.2812
rfingers 7.12502
rthumb 18.0897 -78.46
lclavicle 1.16786e-014 3.81667e-014
lhumerus -28.0687 -20.7142 82.4447
lradius 40.9799
lwrist 74.3507
lhand -38.7855 -15.2031
lfingers 7.12502
lthumb -11.7969 14.4446
rfemur -51.6871 24.0265 -6.81929
rtibia 73.9873
rfoot 3.84741 10.4533
rtoes -42.1958
lfemur -32.709 -7.05881 -36.0475
ltibia 38.0217
lfoot -16.2527 10.671
ltoes 5.19353
